<svg width="168px" height="250px" version="1.1" xmlns="http://www.w3.org/2000/svg"><path d="M59.0,-79.2 L58.0,-79.2 L57.0,-79.2 L56.0,-79.2 L55.0,-79.2 L54.0,-79.2 L53.0,-79.2 L52.0,-79.2 L51.0,-79.2 L50.0,-79.2 L49.8,-79.0 L49.0,-78.2 L48.0,-78.2 L47.0,-78.2 L46.0,-78.2 L45.0,-78.2 L44.8,-78.0 L44.0,-77.2 L43.0,-77.2 L42.8,-77.0 L42.0,-76.2 L41.0,-76.2 L40.0,-76.2 L39.8,-76.0 L39.0,-75.2 L38.8,-75.0 L38.0,-74.2 L37.8,-74.0 L37.0,-73.2 L36.8,-73.0 L36.0,-72.2 L35.0,-72.2 L34.8,-72.0 L34.8,-71.0 L34.0,-70.2 L33.8,-70.0 L33.0,-69.2 L32.8,-69.0 L32.0,-68.2 L31.8,-68.0 L31.8,-67.0 L31.8,-66.0 L31.0,-65.2 L30.8,-65.0 L30.8,-64.0 L30.0,-63.2 L29.8,-63.0 L29.8,-62.0 L29.0,-61.2 L28.8,-61.0 L28.8,-60.0 L28.8,-59.0 L28.8,-58.0 L28.8,-57.0 L28.0,-56.2 L27.8,-56.0 L27.8,-55.0 L27.8,-54.0 L27.8,-53.0 L27.8,-52.0 L27.8,-51.0 L27.8,-50.0 L27.8,-49.0 L27.8,-48.0 L27.8,-47.0 L27.8,-46.0 L27.8,-45.0 L27.8,-44.0 L27.8,-43.0 L27.8,-42.0 L27.8,-41.0 L27.8,-40.0 L28.0,-39.8 L28.8,-39.0 L28.8,-38.0 L28.8,-37.0 L28.8,-36.0 L29.0,-35.8 L29.8,-35.0 L29.8,-34.0 L29.8,-33.0 L29.8,-32.0 L30.0,-31.8 L30.8,-31.0 L31.0,-30.8 L31.8,-30.0 L31.8,-29.0 L32.0,-28.8 L32.8,-28.0 L33.0,-27.8 L33.8,-27.0 L33.8,-26.0 L34.0,-25.8 L34.8,-25.0 L35.0,-24.8 L35.8,-24.0 L36.0,-23.8 L37.0,-23.8 L37.8,-23.0 L38.0,-22.8 L38.8,-22.0 L39.0,-21.8 L39.8,-21.0 L40.0,-20.8 L41.0,-20.8 L41.8,-20.0 L42.0,-19.8 L43.0,-19.8 L43.8,-19.0 L44.0,-18.8 L45.0,-18.8 L46.0,-18.8 L47.0,-18.8 L47.8,-18.0 L48.0,-17.8 L49.0,-17.8 L50.0,-17.8 L51.0,-17.8 L52.0,-17.8 L53.0,-17.8 L54.0,-17.8 L55.0,-17.8 L56.0,-17.8 L57.0,-17.8 L58.0,-17.8 L59.0,-17.8 L60.0,-17.8 L61.0,-17.8 L61.2,-18.0 L62.0,-18.8 L63.0,-18.8 L64.0,-18.8 L65.0,-18.8 L65.2,-19.0 L66.0,-19.8 L67.0,-19.8 L67.2,-20.0 L68.0,-20.8 L69.0,-20.8 L69.2,-21.0 L70.0,-21.8 L71.0,-21.8 L71.2,-22.0 L72.0,-22.8 L72.2,-23.0 L73.0,-23.8 L73.2,-24.0 L74.0,-24.8 L74.2,-25.0 L75.0,-25.8 L75.2,-26.0 L76.0,-26.8 L76.2,-27.0 L76.2,-28.0 L77.0,-28.8 L77.2,-29.0 L77.2,-30.0 L78.0,-30.8 L78.2,-31.0 L78.2,-32.0 L79.0,-32.8 L79.2,-33.0 L79.2,-34.0 L79.2,-35.0 L80.0,-35.8 L80.2,-36.0 L80.2,-37.0 L80.2,-38.0 L80.2,-39.0 L81.0,-39.8 L81.2,-40.0 L81.2,-41.0 L81.2,-42.0 L81.2,-43.0 L81.2,-44.0 L81.2,-45.0 L81.2,-46.0 L81.2,-47.0 L81.2,-48.0 L81.2,-49.0 L81.2,-50.0 L81.2,-51.0 L81.2,-52.0 L81.2,-53.0 L81.2,-54.0 L81.2,-55.0 L81.0,-55.2 L80.2,-56.0 L80.2,-57.0 L80.2,-58.0 L80.2,-59.0 L80.2,-60.0 L80.2,-61.0 L80.0,-61.2 L79.2,-62.0 L79.2,-63.0 L79.0,-63.2 L78.2,-64.0 L78.2,-65.0 L78.2,-66.0 L78.0,-66.2 L77.2,-67.0 L77.0,-67.2 L76.2,-68.0 L76.2,-69.0 L76.0,-69.2 L75.2,-70.0 L75.2,-71.0 L75.0,-71.2 L74.0,-71.2 L73.2,-72.0 L73.2,-73.0 L73.0,-73.2 L72.0,-73.2 L71.2,-74.0 L71.0,-74.2 L70.2,-75.0 L70.0,-75.2 L69.2,-76.0 L69.0,-76.2 L68.0,-76.2 L67.0,-76.2 L66.2,-77.0 L66.0,-77.2 L65.0,-77.2 L64.2,-78.0 L64.0,-78.2 L63.0,-78.2 L62.0,-78.2 L61.0,-78.2 L60.0,-78.2 L59.2,-79.0 L59.0,-79.2 Z" fill="none" stroke="black"/><path d="M93.0,-103.2 L92.0,-103.2 L91.0,-103.2 L90.0,-103.2 L89.8,-103.0 L89.0,-102.2 L88.0,-102.2 L87.8,-102.0 L87.8,-101.0 L87.0,-100.2 L86.8,-100.0 L86.8,-99.0 L86.8,-98.0 L86.8,-97.0 L86.8,-96.0 L86.8,-95.0 L86.8,-94.0 L86.8,-93.0 L86.8,-92.0 L86.8,-91.0 L86.8,-90.0 L86.8,-89.0 L86.8,-88.0 L86.8,-87.0 L86.8,-86.0 L86.8,-85.0 L86.8,-84.0 L86.8,-83.0 L86.8,-82.0 L86.8,-81.0 L86.8,-80.0 L86.8,-79.0 L86.8,-78.0 L86.8,-77.0 L86.8,-76.0 L86.8,-75.0 L86.8,-74.0 L86.8,-73.0 L86.8,-72.0 L86.8,-71.0 L86.8,-70.0 L86.8,-69.0 L86.8,-68.0 L86.8,-67.0 L86.8,-66.0 L86.8,-65.0 L86.8,-64.0 L86.8,-63.0 L86.8,-62.0 L86.8,-61.0 L86.8,-60.0 L86.8,-59.0 L86.8,-58.0 L86.8,-57.0 L86.8,-56.0 L86.8,-55.0 L86.8,-54.0 L86.8,-53.0 L86.8,-52.0 L86.8,-51.0 L86.8,-50.0 L86.8,-49.0 L86.8,-48.0 L86.8,-47.0 L86.8,-46.0 L86.8,-45.0 L86.8,-44.0 L86.8,-43.0 L86.8,-42.0 L86.8,-41.0 L86.8,-40.0 L86.8,-39.0 L86.8,-38.0 L86.8,-37.0 L86.8,-36.0 L86.8,-35.0 L86.8,-34.0 L86.8,-33.0 L86.8,-32.0 L86.8,-31.0 L86.8,-30.0 L86.8,-29.0 L86.8,-28.0 L86.8,-27.0 L86.8,-26.0 L86.8,-25.0 L86.8,-24.0 L86.8,-23.0 L86.8,-22.0 L87.0,-21.8 L87.8,-21.0 L87.8,-20.0 L88.0,-19.8 L88.8,-19.0 L89.0,-18.8 L90.0,-18.8 L91.0,-18.8 L92.0,-18.8 L93.0,-18.8 L93.2,-19.0 L94.0,-19.8 L94.2,-20.0 L95.0,-20.8 L95.2,-21.0 L95.2,-22.0 L95.2,-23.0 L95.2,-24.0 L96.0,-24.8 L96.8,-24.0 L97.0,-23.8 L97.8,-23.0 L98.0,-22.8 L99.0,-22.8 L99.8,-22.0 L100.0,-21.8 L100.8,-21.0 L101.0,-20.8 L102.0,-20.8 L102.8,-20.0 L103.0,-19.8 L103.8,-19.0 L104.0,-18.8 L105.0,-18.8 L106.0,-18.8 L106.8,-18.0 L107.0,-17.8 L108.0,-17.8 L109.0,-17.8 L110.0,-17.8 L111.0,-17.8 L112.0,-17.8 L113.0,-17.8 L114.0,-17.8 L115.0,-17.8 L116.0,-17.8 L117.0,-17.8 L118.0,-17.8 L119.0,-17.8 L119.2,-18.0 L120.0,-18.8 L121.0,-18.8 L122.0,-18.8 L123.0,-18.8 L123.2,-19.0 L124.0,-19.8 L125.0,-19.8 L125.2,-20.0 L126.0,-20.8 L127.0,-20.8 L127.2,-21.0 L128.0,-21.8 L129.0,-21.8 L129.2,-22.0 L130.0,-22.8 L130.2,-23.0 L131.0,-23.8 L131.2,-24.0 L132.0,-24.8 L132.2,-25.0 L133.0,-25.8 L133.2,-26.0 L133.2,-27.0 L134.0,-27.8 L134.2,-28.0 L135.0,-28.8 L135.2,-29.0 L135.2,-30.0 L136.0,-30.8 L136.2,-31.0 L137.0,-31.8 L137.2,-32.0 L137.2,-33.0 L137.2,-34.0 L137.2,-35.0 L138.0,-35.8 L138.2,-36.0 L138.2,-37.0 L138.2,-38.0 L138.2,-39.0 L139.0,-39.8 L139.2,-40.0 L139.2,-41.0 L139.2,-42.0 L139.2,-43.0 L139.2,-44.0 L139.2,-45.0 L139.2,-46.0 L139.2,-47.0 L139.2,-48.0 L139.2,-49.0 L139.2,-50.0 L139.2,-51.0 L139.2,-52.0 L139.2,-53.0 L139.2,-54.0 L139.2,-55.0 L139.2,-56.0 L139.0,-56.2 L138.2,-57.0 L138.2,-58.0 L138.2,-59.0 L138.2,-60.0 L138.2,-61.0 L138.0,-61.2 L137.2,-62.0 L137.2,-63.0 L137.0,-63.2 L136.2,-64.0 L136.2,-65.0 L136.2,-66.0 L136.0,-66.2 L135.2,-67.0 L135.2,-68.0 L135.0,-68.2 L134.2,-69.0 L134.0,-69.2 L133.2,-70.0 L133.2,-71.0 L133.0,-71.2 L132.2,-72.0 L132.0,-72.2 L131.2,-73.0 L131.0,-73.2 L130.2,-74.0 L130.0,-74.2 L129.0,-74.2 L128.2,-75.0 L128.0,-75.2 L127.2,-76.0 L127.0,-76.2 L126.0,-76.2 L125.0,-76.2 L124.2,-77.0 L124.0,-77.2 L123.0,-77.2 L122.2,-78.0 L122.0,-78.2 L121.0,-78.2 L120.0,-78.2 L119.0,-78.2 L118.2,-79.0 L118.0,-79.2 L117.0,-79.2 L116.0,-79.2 L115.0,-79.2 L114.0,-79.2 L113.0,-79.2 L112.0,-79.2 L111.0,-79.2 L110.0,-79.2 L109.0,-79.2 L108.8,-79.0 L108.0,-78.2 L107.0,-78.2 L106.0,-78.2 L105.0,-78.2 L104.8,-78.0 L104.0,-77.2 L103.0,-77.2 L102.8,-77.0 L102.0,-76.2 L101.0,-76.2 L100.8,-76.0 L100.0,-75.2 L99.8,-75.0 L99.0,-74.2 L98.8,-74.0 L98.0,-73.2 L97.8,-73.0 L97.0,-72.2 L96.8,-72.0 L96.0,-71.2 L95.2,-72.0 L95.2,-73.0 L95.2,-74.0 L95.2,-75.0 L95.2,-76.0 L95.2,-77.0 L95.2,-78.0 L95.2,-79.0 L95.2,-80.0 L95.2,-81.0 L95.2,-82.0 L95.2,-83.0 L95.2,-84.0 L95.2,-85.0 L95.2,-86.0 L95.2,-87.0 L95.2,-88.0 L95.2,-89.0 L95.2,-90.0 L95.2,-91.0 L95.2,-92.0 L95.2,-93.0 L95.2,-94.0 L95.2,-95.0 L95.2,-96.0 L95.2,-97.0 L95.2,-98.0 L95.2,-99.0 L95.2,-100.0 L95.2,-101.0 L95.0,-101.2 L94.2,-102.0 L94.0,-102.2 L93.2,-103.0 L93.0,-103.2 Z" fill="none" stroke="black"/><path d="M58.8,-71.0 L59.0,-70.8 L60.0,-70.8 L61.0,-70.8 L62.0,-70.8 L62.8,-70.0 L63.0,-69.8 L63.8,-69.0 L64.0,-68.8 L65.0,-68.8 L65.8,-68.0 L66.0,-67.8 L66.8,-67.0 L67.0,-66.8 L67.8,-66.0 L68.0,-65.8 L68.8,-65.0 L69.0,-64.8 L69.8,-64.0 L69.8,-63.0 L70.0,-62.8 L70.8,-62.0 L70.8,-61.0 L71.0,-60.8 L71.8,-60.0 L71.8,-59.0 L71.8,-58.0 L71.8,-57.0 L71.8,-56.0 L72.0,-55.8 L72.8,-55.0 L72.8,-54.0 L72.8,-53.0 L72.8,-52.0 L72.8,-51.0 L72.8,-50.0 L72.8,-49.0 L72.8,-48.0 L72.8,-47.0 L72.8,-46.0 L72.8,-45.0 L72.8,-44.0 L72.8,-43.0 L72.8,-42.0 L72.8,-41.0 L72.0,-40.2 L71.8,-40.0 L71.8,-39.0 L71.8,-38.0 L71.8,-37.0 L71.0,-36.2 L70.8,-36.0 L70.8,-35.0 L70.8,-34.0 L70.0,-33.2 L69.8,-33.0 L69.0,-32.2 L68.8,-32.0 L68.8,-31.0 L68.0,-30.2 L67.8,-30.0 L67.0,-29.2 L66.0,-29.2 L65.8,-29.0 L65.0,-28.2 L64.8,-28.0 L64.0,-27.2 L63.8,-27.0 L63.0,-26.2 L62.0,-26.2 L61.0,-26.2 L60.8,-26.0 L60.0,-25.2 L59.0,-25.2 L58.0,-25.2 L57.0,-25.2 L56.0,-25.2 L55.0,-25.2 L54.0,-25.2 L53.0,-25.2 L52.0,-25.2 L51.0,-25.2 L50.0,-25.2 L49.0,-25.2 L48.2,-26.0 L48.0,-26.2 L47.0,-26.2 L46.0,-26.2 L45.2,-27.0 L45.0,-27.2 L44.2,-28.0 L44.0,-28.2 L43.2,-29.0 L43.0,-29.2 L42.0,-29.2 L41.2,-30.0 L41.2,-31.0 L41.0,-31.2 L40.2,-32.0 L40.0,-32.2 L39.2,-33.0 L39.0,-33.2 L38.2,-34.0 L38.2,-35.0 L38.2,-36.0 L38.0,-36.2 L37.2,-37.0 L37.2,-38.0 L37.2,-39.0 L37.0,-39.2 L36.2,-40.0 L36.2,-41.0 L36.2,-42.0 L36.2,-43.0 L36.2,-44.0 L36.2,-45.0 L36.2,-46.0 L36.2,-47.0 L36.2,-48.0 L36.2,-49.0 L36.2,-50.0 L36.2,-51.0 L36.2,-52.0 L36.2,-53.0 L36.2,-54.0 L36.2,-55.0 L36.2,-56.0 L37.0,-56.8 L37.2,-57.0 L37.2,-58.0 L37.2,-59.0 L38.0,-59.8 L38.2,-60.0 L38.2,-61.0 L38.2,-62.0 L39.0,-62.8 L39.2,-63.0 L39.2,-64.0 L40.0,-64.8 L40.2,-65.0 L41.0,-65.8 L41.2,-66.0 L41.2,-67.0 L42.0,-67.8 L43.0,-67.8 L43.2,-68.0 L44.0,-68.8 L44.2,-69.0 L45.0,-69.8 L46.0,-69.8 L46.2,-70.0 L47.0,-70.8 L48.0,-70.8 L49.0,-70.8 L50.0,-70.8 L50.2,-71.0 L51.0,-71.8 L52.0,-71.8 L53.0,-71.8 L54.0,-71.8 L55.0,-71.8 L56.0,-71.8 L57.0,-71.8 L58.0,-71.8 L58.8,-71.0 Z" fill="none" stroke="black"/><path d="M116.8,-71.0 L117.0,-70.8 L118.0,-70.8 L119.0,-70.8 L120.0,-70.8 L120.8,-70.0 L121.0,-69.8 L122.0,-69.8 L122.8,-69.0 L123.0,-68.8 L123.8,-68.0 L124.0,-67.8 L125.0,-67.8 L125.8,-67.0 L125.8,-66.0 L126.0,-65.8 L126.8,-65.0 L127.0,-64.8 L127.8,-64.0 L127.8,-63.0 L128.0,-62.8 L128.8,-62.0 L128.8,-61.0 L129.0,-60.8 L129.8,-60.0 L129.8,-59.0 L129.8,-58.0 L129.8,-57.0 L130.0,-56.8 L130.8,-56.0 L130.8,-55.0 L130.8,-54.0 L130.8,-53.0 L130.8,-52.0 L130.8,-51.0 L130.8,-50.0 L130.8,-49.0 L130.8,-48.0 L130.8,-47.0 L130.8,-46.0 L130.8,-45.0 L130.8,-44.0 L130.8,-43.0 L130.8,-42.0 L130.8,-41.0 L130.8,-40.0 L130.0,-39.2 L129.8,-39.0 L129.8,-38.0 L129.8,-37.0 L129.0,-36.2 L128.8,-36.0 L128.8,-35.0 L128.0,-34.2 L127.8,-34.0 L127.8,-33.0 L127.0,-32.2 L126.8,-32.0 L126.0,-31.2 L125.8,-31.0 L125.8,-30.0 L125.0,-29.2 L124.0,-29.2 L123.8,-29.0 L123.0,-28.2 L122.8,-28.0 L122.0,-27.2 L121.8,-27.0 L121.0,-26.2 L120.0,-26.2 L119.0,-26.2 L118.0,-26.2 L117.8,-26.0 L117.0,-25.2 L116.0,-25.2 L115.0,-25.2 L114.0,-25.2 L113.0,-25.2 L112.0,-25.2 L111.0,-25.2 L110.0,-25.2 L109.0,-25.2 L108.0,-25.2 L107.2,-26.0 L107.0,-26.2 L106.0,-26.2 L105.2,-27.0 L105.0,-27.2 L104.0,-27.2 L103.2,-28.0 L103.0,-28.2 L102.2,-29.0 L102.0,-29.2 L101.2,-30.0 L101.0,-30.2 L100.2,-31.0 L100.0,-31.2 L99.2,-32.0 L99.0,-32.2 L98.2,-33.0 L98.2,-34.0 L98.0,-34.2 L97.2,-35.0 L97.2,-36.0 L97.2,-37.0 L97.0,-37.2 L96.2,-38.0 L96.2,-39.0 L96.2,-40.0 L96.0,-40.2 L95.2,-41.0 L95.2,-42.0 L95.2,-43.0 L95.2,-44.0 L95.2,-45.0 L95.2,-46.0 L95.2,-47.0 L95.2,-48.0 L95.2,-49.0 L95.2,-50.0 L95.2,-51.0 L95.2,-52.0 L95.2,-53.0 L95.2,-54.0 L95.2,-55.0 L96.0,-55.8 L96.2,-56.0 L96.2,-57.0 L96.2,-58.0 L96.2,-59.0 L97.0,-59.8 L97.2,-60.0 L97.2,-61.0 L97.2,-62.0 L98.0,-62.8 L98.2,-63.0 L98.2,-64.0 L99.0,-64.8 L99.2,-65.0 L100.0,-65.8 L100.2,-66.0 L101.0,-66.8 L101.2,-67.0 L102.0,-67.8 L102.2,-68.0 L103.0,-68.8 L103.2,-69.0 L104.0,-69.8 L105.0,-69.8 L105.2,-70.0 L106.0,-70.8 L107.0,-70.8 L108.0,-70.8 L109.0,-70.8 L109.2,-71.0 L110.0,-71.8 L111.0,-71.8 L112.0,-71.8 L113.0,-71.8 L114.0,-71.8 L115.0,-71.8 L116.0,-71.8 L116.8,-71.0 Z" fill="none" stroke="black"/><path d="M68.0,-46.2 L67.0,-46.2 L66.0,-46.2 L65.0,-46.2 L64.0,-46.2 L63.8,-46.0 L63.0,-45.2 L62.0,-45.2 L61.8,-45.0 L61.8,-44.0 L61.0,-43.2 L60.8,-43.0 L60.8,-42.0 L60.8,-41.0 L60.8,-40.0 L60.8,-39.0 L60.8,-38.0 L60.8,-37.0 L60.8,-36.0 L61.0,-35.8 L61.8,-35.0 L62.0,-34.8 L62.8,-34.0 L63.0,-33.8 L64.0,-33.8 L64.8,-33.0 L65.0,-32.8 L66.0,-32.8 L66.2,-33.0 L67.0,-33.8 L68.0,-33.8 L68.2,-34.0 L69.0,-34.8 L69.2,-35.0 L69.2,-36.0 L70.0,-36.8 L70.2,-37.0 L70.2,-38.0 L70.2,-39.0 L70.2,-40.0 L70.2,-41.0 L70.2,-42.0 L70.2,-43.0 L70.0,-43.2 L69.2,-44.0 L69.2,-45.0 L69.0,-45.2 L68.2,-46.0 L68.0,-46.2 Z" fill="none" stroke="black"/><path d="M124.0,-46.2 L123.0,-46.2 L122.0,-46.2 L121.0,-46.2 L120.8,-46.0 L120.0,-45.2 L119.8,-45.0 L119.0,-44.2 L118.8,-44.0 L118.0,-43.2 L117.8,-43.0 L117.8,-42.0 L117.8,-41.0 L117.8,-40.0 L117.8,-39.0 L117.8,-38.0 L117.8,-37.0 L118.0,-36.8 L118.8,-36.0 L118.8,-35.0 L119.0,-34.8 L119.8,-34.0 L120.0,-33.8 L121.0,-33.8 L121.8,-33.0 L122.0,-32.8 L123.0,-32.8 L123.2,-33.0 L124.0,-33.8 L125.0,-33.8 L125.2,-34.0 L126.0,-34.8 L126.2,-35.0 L127.0,-35.8 L127.2,-36.0 L127.2,-37.0 L127.2,-38.0 L127.2,-39.0 L127.2,-40.0 L127.2,-41.0 L127.2,-42.0 L127.2,-43.0 L127.0,-43.2 L126.2,-44.0 L126.2,-45.0 L126.0,-45.2 L125.0,-45.2 L124.2,-46.0 L124.0,-46.2 Z" fill="none" stroke="black"/><path d="M71.0,-87.2 L70.0,-87.2 L69.8,-87.0 L69.0,-86.2 L68.0,-86.2 L67.8,-86.0 L67.8,-85.0 L67.8,-84.0 L67.8,-83.0 L67.8,-82.0 L68.0,-81.8 L69.0,-81.8 L70.0,-81.8 L71.0,-81.8 L72.0,-81.8 L72.2,-82.0 L73.0,-82.8 L73.2,-83.0 L73.2,-84.0 L73.2,-85.0 L73.0,-85.2 L72.2,-86.0 L72.0,-86.2 L71.2,-87.0 L71.0,-87.2 Z" fill="none" stroke="black"/><path d="M60.0,-126.2 L59.0,-126.2 L58.0,-126.2 L57.0,-126.2 L56.0,-126.2 L55.0,-126.2 L54.8,-126.0 L54.0,-125.2 L53.0,-125.2 L52.8,-125.0 L52.8,-124.0 L52.0,-123.2 L51.8,-123.0 L51.0,-122.2 L50.8,-122.0 L50.8,-121.0 L50.8,-120.0 L50.0,-119.2 L49.8,-119.0 L49.8,-118.0 L49.8,-117.0 L49.8,-116.0 L49.8,-115.0 L49.8,-114.0 L49.8,-113.0 L49.8,-112.0 L49.8,-111.0 L49.8,-110.0 L49.8,-109.0 L49.8,-108.0 L49.8,-107.0 L49.8,-106.0 L49.8,-105.0 L49.8,-104.0 L49.8,-103.0 L49.8,-102.0 L49.8,-101.0 L49.8,-100.0 L49.8,-99.0 L49.0,-98.2 L48.0,-98.2 L47.0,-98.2 L46.0,-98.2 L45.8,-98.0 L45.8,-97.0 L45.8,-96.0 L45.8,-95.0 L46.0,-94.8 L46.8,-94.0 L47.0,-93.8 L48.0,-93.8 L49.0,-93.8 L49.8,-93.0 L49.8,-92.0 L49.8,-91.0 L49.8,-90.0 L49.8,-89.0 L49.8,-88.0 L50.0,-87.8 L50.8,-87.0 L50.8,-86.0 L50.8,-85.0 L51.0,-84.8 L52.0,-84.8 L53.0,-84.8 L54.0,-84.8 L54.2,-85.0 L54.2,-86.0 L55.0,-86.8 L55.2,-87.0 L55.2,-88.0 L55.2,-89.0 L55.2,-90.0 L55.2,-91.0 L55.2,-92.0 L55.2,-93.0 L56.0,-93.8 L57.0,-93.8 L58.0,-93.8 L59.0,-93.8 L60.0,-93.8 L60.2,-94.0 L61.0,-94.8 L61.2,-95.0 L61.2,-96.0 L61.2,-97.0 L61.2,-98.0 L61.0,-98.2 L60.0,-98.2 L59.0,-98.2 L58.0,-98.2 L57.0,-98.2 L56.0,-98.2 L55.2,-99.0 L55.2,-100.0 L55.2,-101.0 L55.2,-102.0 L55.2,-103.0 L55.2,-104.0 L55.2,-105.0 L55.2,-106.0 L55.2,-107.0 L55.2,-108.0 L55.2,-109.0 L55.2,-110.0 L55.2,-111.0 L55.2,-112.0 L55.2,-113.0 L55.2,-114.0 L55.2,-115.0 L55.2,-116.0 L55.2,-117.0 L55.2,-118.0 L55.2,-119.0 L55.2,-120.0 L56.0,-120.8 L56.2,-121.0 L57.0,-121.8 L58.0,-121.8 L58.2,-122.0 L59.0,-122.8 L60.0,-122.8 L60.2,-123.0 L61.0,-123.8 L61.2,-124.0 L61.2,-125.0 L61.0,-125.2 L60.2,-126.0 L60.0,-126.2 Z" fill="none" stroke="black"/><path d="M72.0,-126.2 L71.0,-126.2 L70.0,-126.2 L69.0,-126.2 L68.8,-126.0 L68.0,-125.2 L67.8,-125.0 L67.8,-124.0 L67.8,-123.0 L67.8,-122.0 L67.8,-121.0 L67.8,-120.0 L67.8,-119.0 L67.8,-118.0 L67.8,-117.0 L67.8,-116.0 L67.8,-115.0 L67.8,-114.0 L67.8,-113.0 L67.8,-112.0 L67.8,-111.0 L67.8,-110.0 L67.8,-109.0 L67.8,-108.0 L67.8,-107.0 L67.8,-106.0 L67.8,-105.0 L67.8,-104.0 L67.8,-103.0 L67.8,-102.0 L67.8,-101.0 L67.8,-100.0 L67.8,-99.0 L67.8,-98.0 L67.8,-97.0 L67.8,-96.0 L68.0,-95.8 L68.8,-95.0 L68.8,-94.0 L69.0,-93.8 L70.0,-93.8 L71.0,-93.8 L72.0,-93.8 L72.2,-94.0 L72.2,-95.0 L72.2,-96.0 L72.2,-97.0 L72.2,-98.0 L72.2,-99.0 L72.2,-100.0 L72.2,-101.0 L72.2,-102.0 L72.2,-103.0 L72.2,-104.0 L72.2,-105.0 L72.2,-106.0 L72.2,-107.0 L72.2,-108.0 L72.2,-109.0 L72.2,-110.0 L72.2,-111.0 L72.2,-112.0 L72.2,-113.0 L72.2,-114.0 L72.2,-115.0 L72.2,-116.0 L72.2,-117.0 L72.2,-118.0 L72.2,-119.0 L72.2,-120.0 L72.2,-121.0 L72.2,-122.0 L72.2,-123.0 L72.2,-124.0 L72.2,-125.0 L72.2,-126.0 L72.0,-126.2 Z" fill="none" stroke="black"/><path d="M75.0,-167.2 L74.0,-167.2 L73.0,-167.2 L72.8,-167.0 L72.8,-166.0 L72.0,-165.2 L71.8,-165.0 L71.8,-164.0 L71.8,-163.0 L71.8,-162.0 L71.8,-161.0 L71.8,-160.0 L71.8,-159.0 L71.8,-158.0 L71.8,-157.0 L71.8,-156.0 L71.8,-155.0 L71.8,-154.0 L71.8,-153.0 L71.8,-152.0 L71.8,-151.0 L71.8,-150.0 L71.8,-149.0 L71.8,-148.0 L71.8,-147.0 L71.8,-146.0 L71.8,-145.0 L71.8,-144.0 L71.8,-143.0 L71.0,-142.2 L70.8,-142.0 L70.8,-141.0 L70.0,-140.2 L69.8,-140.0 L69.0,-139.2 L68.8,-139.0 L68.0,-138.2 L67.0,-138.2 L66.0,-138.2 L65.8,-138.0 L65.0,-137.2 L64.0,-137.2 L63.0,-137.2 L62.0,-137.2 L61.2,-138.0 L61.0,-138.2 L60.0,-138.2 L59.0,-138.2 L58.2,-139.0 L58.0,-139.2 L57.2,-140.0 L57.0,-140.2 L56.2,-141.0 L56.2,-142.0 L56.2,-143.0 L56.0,-143.2 L55.2,-144.0 L55.2,-145.0 L55.2,-146.0 L55.2,-147.0 L55.2,-148.0 L55.2,-149.0 L55.2,-150.0 L55.2,-151.0 L55.2,-152.0 L55.2,-153.0 L55.2,-154.0 L55.2,-155.0 L55.2,-156.0 L55.2,-157.0 L55.2,-158.0 L55.2,-159.0 L55.2,-160.0 L55.2,-161.0 L55.2,-162.0 L55.2,-163.0 L55.2,-164.0 L55.2,-165.0 L55.2,-166.0 L55.0,-166.2 L54.2,-167.0 L54.0,-167.2 L53.0,-167.2 L52.0,-167.2 L51.8,-167.0 L51.8,-166.0 L51.0,-165.2 L50.8,-165.0 L50.8,-164.0 L50.8,-163.0 L50.8,-162.0 L50.8,-161.0 L50.8,-160.0 L50.8,-159.0 L50.8,-158.0 L50.8,-157.0 L50.8,-156.0 L50.8,-155.0 L50.8,-154.0 L50.8,-153.0 L50.8,-152.0 L50.8,-151.0 L50.8,-150.0 L50.8,-149.0 L50.8,-148.0 L50.8,-147.0 L50.8,-146.0 L50.8,-145.0 L50.8,-144.0 L50.8,-143.0 L50.8,-142.0 L50.0,-141.2 L49.8,-141.0 L49.8,-140.0 L49.0,-139.2 L48.0,-139.2 L47.8,-139.0 L47.0,-138.2 L46.0,-138.2 L45.0,-138.2 L44.8,-138.0 L44.0,-137.2 L43.0,-137.2 L42.2,-138.0 L42.0,-138.2 L41.0,-138.2 L40.0,-138.2 L39.0,-138.2 L38.2,-139.0 L38.0,-139.2 L37.2,-140.0 L37.0,-140.2 L36.2,-141.0 L36.2,-142.0 L36.0,-142.2 L35.2,-143.0 L35.2,-144.0 L35.2,-145.0 L35.2,-146.0 L35.2,-147.0 L35.2,-148.0 L35.2,-149.0 L35.2,-150.0 L35.2,-151.0 L35.2,-152.0 L35.2,-153.0 L35.2,-154.0 L35.2,-155.0 L35.2,-156.0 L35.2,-157.0 L35.2,-158.0 L35.2,-159.0 L35.2,-160.0 L35.2,-161.0 L35.2,-162.0 L35.2,-163.0 L35.2,-164.0 L35.2,-165.0 L35.0,-165.2 L34.2,-166.0 L34.2,-167.0 L34.0,-167.2 L33.0,-167.2 L32.0,-167.2 L31.8,-167.0 L31.0,-166.2 L30.8,-166.0 L30.8,-165.0 L30.8,-164.0 L30.8,-163.0 L30.8,-162.0 L30.8,-161.0 L30.8,-160.0 L30.8,-159.0 L30.8,-158.0 L30.8,-157.0 L30.8,-156.0 L30.8,-155.0 L30.8,-154.0 L30.8,-153.0 L30.8,-152.0 L30.8,-151.0 L30.8,-150.0 L30.8,-149.0 L30.8,-148.0 L30.8,-147.0 L30.8,-146.0 L30.8,-145.0 L30.8,-144.0 L30.8,-143.0 L30.8,-142.0 L30.8,-141.0 L30.8,-140.0 L30.8,-139.0 L30.8,-138.0 L30.8,-137.0 L30.8,-136.0 L30.8,-135.0 L31.0,-134.8 L31.8,-134.0 L32.0,-133.8 L33.0,-133.8 L34.0,-133.8 L34.2,-134.0 L34.2,-135.0 L35.0,-135.8 L35.2,-136.0 L36.0,-136.8 L36.8,-136.0 L37.0,-135.8 L37.8,-135.0 L38.0,-134.8 L39.0,-134.8 L39.8,-134.0 L40.0,-133.8 L41.0,-133.8 L42.0,-133.8 L43.0,-133.8 L44.0,-133.8 L45.0,-133.8 L46.0,-133.8 L47.0,-133.8 L48.0,-133.8 L48.2,-134.0 L49.0,-134.8 L50.0,-134.8 L50.2,-135.0 L51.0,-135.8 L52.0,-135.8 L52.2,-136.0 L53.0,-136.8 L53.2,-137.0 L54.0,-137.8 L54.8,-137.0 L55.0,-136.8 L55.8,-136.0 L56.0,-135.8 L57.0,-135.8 L57.8,-135.0 L58.0,-134.8 L58.8,-134.0 L59.0,-133.8 L60.0,-133.8 L61.0,-133.8 L62.0,-133.8 L63.0,-133.8 L64.0,-133.8 L65.0,-133.8 L66.0,-133.8 L67.0,-133.8 L68.0,-133.8 L69.0,-133.8 L69.2,-134.0 L70.0,-134.8 L71.0,-134.8 L71.2,-135.0 L72.0,-135.8 L72.2,-136.0 L73.0,-136.8 L73.2,-137.0 L74.0,-137.8 L74.2,-138.0 L74.2,-139.0 L75.0,-139.8 L75.2,-140.0 L75.2,-141.0 L76.0,-141.8 L76.2,-142.0 L76.2,-143.0 L76.2,-144.0 L76.2,-145.0 L76.2,-146.0 L76.2,-147.0 L76.2,-148.0 L76.2,-149.0 L76.2,-150.0 L76.2,-151.0 L76.2,-152.0 L76.2,-153.0 L76.2,-154.0 L76.2,-155.0 L76.2,-156.0 L76.2,-157.0 L76.2,-158.0 L76.2,-159.0 L76.2,-160.0 L76.2,-161.0 L76.2,-162.0 L76.2,-163.0 L76.2,-164.0 L76.2,-165.0 L76.2,-166.0 L76.0,-166.2 L75.2,-167.0 L75.0,-167.2 Z" fill="none" stroke="black"/><path d="M106.0,-167.2 L105.0,-167.2 L104.0,-167.2 L103.8,-167.0 L103.0,-166.2 L102.8,-166.0 L102.8,-165.0 L102.0,-164.2 L101.0,-164.2 L100.2,-165.0 L100.0,-165.2 L99.2,-166.0 L99.0,-166.2 L98.0,-166.2 L97.2,-167.0 L97.0,-167.2 L96.0,-167.2 L95.0,-167.2 L94.0,-167.2 L93.0,-167.2 L92.0,-167.2 L91.0,-167.2 L90.0,-167.2 L89.0,-167.2 L88.8,-167.0 L88.0,-166.2 L87.0,-166.2 L86.8,-166.0 L86.0,-165.2 L85.0,-165.2 L84.8,-165.0 L84.0,-164.2 L83.8,-164.0 L83.8,-163.0 L83.0,-162.2 L82.8,-162.0 L82.8,-161.0 L82.0,-160.2 L81.8,-160.0 L81.8,-159.0 L81.8,-158.0 L81.8,-157.0 L81.8,-156.0 L81.8,-155.0 L82.0,-154.8 L82.8,-154.0 L82.8,-153.0 L83.0,-152.8 L83.8,-152.0 L83.8,-151.0 L84.0,-150.8 L85.0,-150.8 L85.8,-150.0 L86.0,-149.8 L86.8,-149.0 L87.0,-148.8 L87.8,-148.0 L88.0,-147.8 L89.0,-147.8 L90.0,-147.8 L91.0,-147.8 L92.0,-147.8 L93.0,-147.8 L94.0,-147.8 L95.0,-147.8 L96.0,-147.8 L97.0,-147.8 L98.0,-147.8 L99.0,-147.8 L100.0,-147.8 L101.0,-147.8 L102.0,-147.8 L102.8,-147.0 L102.8,-146.0 L102.8,-145.0 L102.8,-144.0 L102.8,-143.0 L102.0,-142.2 L101.8,-142.0 L101.8,-141.0 L101.0,-140.2 L100.8,-140.0 L100.0,-139.2 L99.8,-139.0 L99.0,-138.2 L98.0,-138.2 L97.0,-138.2 L96.0,-138.2 L95.0,-138.2 L94.0,-138.2 L93.0,-138.2 L92.0,-138.2 L91.0,-138.2 L90.2,-139.0 L90.0,-139.2 L89.2,-140.0 L89.0,-140.2 L88.2,-141.0 L88.0,-141.2 L87.2,-142.0 L87.0,-142.2 L86.0,-142.2 L85.0,-142.2 L84.8,-142.0 L84.0,-141.2 L83.8,-141.0 L83.8,-140.0 L83.8,-139.0 L84.0,-138.8 L84.8,-138.0 L85.0,-137.8 L85.8,-137.0 L86.0,-136.8 L86.8,-136.0 L87.0,-135.8 L87.8,-135.0 L88.0,-134.8 L89.0,-134.8 L89.8,-134.0 L90.0,-133.8 L91.0,-133.8 L92.0,-133.8 L93.0,-133.8 L94.0,-133.8 L95.0,-133.8 L96.0,-133.8 L97.0,-133.8 L98.0,-133.8 L99.0,-133.8 L100.0,-133.8 L100.2,-134.0 L101.0,-134.8 L101.2,-135.0 L102.0,-135.8 L103.0,-135.8 L103.2,-136.0 L104.0,-136.8 L104.2,-137.0 L105.0,-137.8 L105.2,-138.0 L105.2,-139.0 L106.0,-139.8 L106.2,-140.0 L106.2,-141.0 L106.2,-142.0 L107.0,-142.8 L107.2,-143.0 L107.2,-144.0 L107.2,-145.0 L107.2,-146.0 L107.2,-147.0 L107.2,-148.0 L107.2,-149.0 L107.2,-150.0 L107.2,-151.0 L107.2,-152.0 L107.2,-153.0 L107.2,-154.0 L107.2,-155.0 L107.2,-156.0 L107.2,-157.0 L107.2,-158.0 L107.2,-159.0 L107.2,-160.0 L107.2,-161.0 L107.2,-162.0 L107.2,-163.0 L107.2,-164.0 L107.2,-165.0 L107.0,-165.2 L106.2,-166.0 L106.2,-167.0 L106.0,-167.2 Z" fill="none" stroke="black"/><path d="M135.0,-167.2 L134.0,-167.2 L133.0,-167.2 L132.8,-167.0 L132.8,-166.0 L132.0,-165.2 L131.8,-165.0 L131.0,-164.2 L130.8,-164.0 L130.0,-163.2 L129.8,-163.0 L129.8,-162.0 L129.0,-161.2 L128.8,-161.0 L128.0,-160.2 L127.8,-160.0 L127.8,-159.0 L127.0,-158.2 L126.8,-158.0 L126.8,-157.0 L126.0,-156.2 L125.8,-156.0 L125.0,-155.2 L124.8,-155.0 L124.0,-154.2 L123.2,-155.0 L123.2,-156.0 L123.0,-156.2 L122.2,-157.0 L122.0,-157.2 L121.2,-158.0 L121.0,-158.2 L120.2,-159.0 L120.2,-160.0 L120.0,-160.2 L119.2,-161.0 L119.2,-162.0 L119.0,-162.2 L118.2,-163.0 L118.0,-163.2 L117.2,-164.0 L117.2,-165.0 L117.0,-165.2 L116.2,-166.0 L116.0,-166.2 L115.2,-167.0 L115.0,-167.2 L114.0,-167.2 L113.0,-167.2 L112.8,-167.0 L112.0,-166.2 L111.8,-166.0 L111.8,-165.0 L111.8,-164.0 L112.0,-163.8 L112.8,-163.0 L112.8,-162.0 L113.0,-161.8 L113.8,-161.0 L114.0,-160.8 L114.8,-160.0 L115.0,-159.8 L115.8,-159.0 L115.8,-158.0 L116.0,-157.8 L116.8,-157.0 L117.0,-156.8 L117.8,-156.0 L117.8,-155.0 L118.0,-154.8 L118.8,-154.0 L119.0,-153.8 L119.8,-153.0 L119.8,-152.0 L120.0,-151.8 L120.8,-151.0 L120.8,-150.0 L120.8,-149.0 L120.0,-148.2 L119.8,-148.0 L119.0,-147.2 L118.8,-147.0 L118.8,-146.0 L118.0,-145.2 L117.8,-145.0 L117.0,-144.2 L116.8,-144.0 L116.8,-143.0 L116.0,-142.2 L115.8,-142.0 L115.0,-141.2 L114.8,-141.0 L114.8,-140.0 L114.0,-139.2 L113.8,-139.0 L113.0,-138.2 L112.8,-138.0 L112.8,-137.0 L112.8,-136.0 L112.8,-135.0 L113.0,-134.8 L113.8,-134.0 L114.0,-133.8 L115.0,-133.8 L115.2,-134.0 L116.0,-134.8 L116.2,-135.0 L117.0,-135.8 L117.2,-136.0 L117.2,-137.0 L118.0,-137.8 L118.2,-138.0 L119.0,-138.8 L119.2,-139.0 L120.0,-139.8 L120.2,-140.0 L120.2,-141.0 L121.0,-141.8 L121.2,-142.0 L121.2,-143.0 L122.0,-143.8 L122.2,-144.0 L123.0,-144.8 L123.2,-145.0 L124.0,-145.8 L124.8,-145.0 L125.0,-144.8 L125.8,-144.0 L126.0,-143.8 L126.8,-143.0 L126.8,-142.0 L127.0,-141.8 L127.8,-141.0 L128.0,-140.8 L128.8,-140.0 L128.8,-139.0 L129.0,-138.8 L129.8,-138.0 L130.0,-137.8 L130.8,-137.0 L130.8,-136.0 L131.0,-135.8 L131.8,-135.0 L132.0,-134.8 L132.8,-134.0 L133.0,-133.8 L134.0,-133.8 L135.0,-133.8 L135.2,-134.0 L135.2,-135.0 L136.0,-135.8 L136.2,-136.0 L136.0,-136.2 L135.2,-137.0 L135.2,-138.0 L135.0,-138.2 L134.2,-139.0 L134.2,-140.0 L134.0,-140.2 L133.2,-141.0 L133.0,-141.2 L132.2,-142.0 L132.2,-143.0 L132.0,-143.2 L131.2,-144.0 L131.0,-144.2 L130.2,-145.0 L130.0,-145.2 L129.2,-146.0 L129.2,-147.0 L129.0,-147.2 L128.2,-148.0 L128.2,-149.0 L128.0,-149.2 L127.2,-150.0 L127.2,-151.0 L128.0,-151.8 L128.2,-152.0 L128.2,-153.0 L129.0,-153.8 L129.2,-154.0 L130.0,-154.8 L130.2,-155.0 L131.0,-155.8 L131.2,-156.0 L131.2,-157.0 L132.0,-157.8 L132.2,-158.0 L133.0,-158.8 L133.2,-159.0 L133.2,-160.0 L134.0,-160.8 L134.2,-161.0 L135.0,-161.8 L135.2,-162.0 L135.2,-163.0 L136.0,-163.8 L136.2,-164.0 L136.2,-165.0 L136.2,-166.0 L136.0,-166.2 L135.2,-167.0 L135.0,-167.2 Z" fill="none" stroke="black"/><path d="M97.8,-162.0 L98.0,-161.8 L99.0,-161.8 L99.8,-161.0 L100.0,-160.8 L100.8,-160.0 L101.0,-159.8 L101.8,-159.0 L101.8,-158.0 L102.0,-157.8 L102.8,-157.0 L102.8,-156.0 L102.8,-155.0 L102.8,-154.0 L102.8,-153.0 L102.8,-152.0 L102.0,-151.2 L101.0,-151.2 L100.0,-151.2 L99.0,-151.2 L98.0,-151.2 L97.0,-151.2 L96.0,-151.2 L95.0,-151.2 L94.0,-151.2 L93.0,-151.2 L92.0,-151.2 L91.0,-151.2 L90.2,-152.0 L90.0,-152.2 L89.0,-152.2 L88.2,-153.0 L88.0,-153.2 L87.2,-154.0 L87.2,-155.0 L87.0,-155.2 L86.2,-156.0 L86.2,-157.0 L86.2,-158.0 L86.2,-159.0 L87.0,-159.8 L87.2,-160.0 L87.2,-161.0 L88.0,-161.8 L89.0,-161.8 L89.2,-162.0 L90.0,-162.8 L91.0,-162.8 L92.0,-162.8 L93.0,-162.8 L94.0,-162.8 L95.0,-162.8 L96.0,-162.8 L97.0,-162.8 L97.8,-162.0 Z" fill="none" stroke="black"/><path d="M122.0,-227.2 L121.0,-227.2 L120.0,-227.2 L119.0,-227.2 L118.0,-227.2 L117.0,-227.2 L116.0,-227.2 L115.0,-227.2 L114.8,-227.0 L114.0,-226.2 L113.0,-226.2 L112.0,-226.2 L111.0,-226.2 L110.0,-226.2 L109.8,-226.0 L109.0,-225.2 L108.0,-225.2 L107.0,-225.2 L106.8,-225.0 L106.0,-224.2 L105.8,-224.0 L105.0,-223.2 L104.0,-223.2 L103.8,-223.0 L103.0,-222.2 L102.0,-222.2 L101.8,-222.0 L101.0,-221.2 L100.8,-221.0 L100.0,-220.2 L99.8,-220.0 L99.0,-219.2 L98.8,-219.0 L98.0,-218.2 L97.8,-218.0 L97.0,-217.2 L96.8,-217.0 L96.0,-216.2 L95.8,-216.0 L95.0,-215.2 L94.8,-215.0 L94.8,-214.0 L94.0,-213.2 L93.8,-213.0 L93.8,-212.0 L93.0,-211.2 L92.8,-211.0 L92.8,-210.0 L92.0,-209.2 L91.8,-209.0 L91.8,-208.0 L91.0,-207.2 L90.8,-207.0 L90.8,-206.0 L90.8,-205.0 L90.0,-204.2 L89.8,-204.0 L89.8,-203.0 L89.8,-202.0 L89.8,-201.0 L89.8,-200.0 L89.0,-199.2 L88.8,-199.0 L88.8,-198.0 L88.8,-197.0 L88.8,-196.0 L88.8,-195.0 L88.8,-194.0 L88.8,-193.0 L88.8,-192.0 L88.8,-191.0 L89.0,-190.8 L89.8,-190.0 L89.0,-189.2 L88.0,-189.2 L87.8,-189.0 L87.0,-188.2 L86.0,-188.2 L85.0,-188.2 L84.0,-188.2 L83.0,-188.2 L82.0,-188.2 L81.2,-189.0 L81.0,-189.2 L80.0,-189.2 L79.0,-189.2 L78.2,-190.0 L78.2,-191.0 L78.2,-192.0 L78.2,-193.0 L78.2,-194.0 L78.2,-195.0 L78.2,-196.0 L78.2,-197.0 L78.2,-198.0 L78.2,-199.0 L78.0,-199.2 L77.2,-200.0 L77.2,-201.0 L77.2,-202.0 L77.2,-203.0 L77.2,-204.0 L77.0,-204.2 L76.2,-205.0 L76.2,-206.0 L76.2,-207.0 L76.0,-207.2 L75.2,-208.0 L75.2,-209.0 L75.2,-210.0 L75.0,-210.2 L74.2,-211.0 L74.0,-211.2 L73.2,-212.0 L73.2,-213.0 L73.0,-213.2 L72.2,-214.0 L72.2,-215.0 L72.0,-215.2 L71.2,-216.0 L71.0,-216.2 L70.2,-217.0 L70.0,-217.2 L69.2,-218.0 L69.0,-218.2 L68.2,-219.0 L68.0,-219.2 L67.2,-220.0 L67.0,-220.2 L66.2,-221.0 L66.0,-221.2 L65.2,-222.0 L65.0,-222.2 L64.0,-222.2 L63.2,-223.0 L63.0,-223.2 L62.0,-223.2 L61.2,-224.0 L61.0,-224.2 L60.2,-225.0 L60.0,-225.2 L59.0,-225.2 L58.0,-225.2 L57.2,-226.0 L57.0,-226.2 L56.0,-226.2 L55.0,-226.2 L54.0,-226.2 L53.0,-226.2 L52.2,-227.0 L52.0,-227.2 L51.0,-227.2 L50.0,-227.2 L49.0,-227.2 L48.0,-227.2 L47.0,-227.2 L46.0,-227.2 L45.0,-227.2 L44.8,-227.0 L44.0,-226.2 L43.0,-226.2 L42.0,-226.2 L41.0,-226.2 L40.0,-226.2 L39.8,-226.0 L39.0,-225.2 L38.0,-225.2 L37.8,-225.0 L37.0,-224.2 L36.0,-224.2 L35.8,-224.0 L35.0,-223.2 L34.8,-223.0 L34.0,-222.2 L33.0,-222.2 L32.8,-222.0 L32.0,-221.2 L31.8,-221.0 L31.0,-220.2 L30.8,-220.0 L30.0,-219.2 L29.8,-219.0 L29.0,-218.2 L28.8,-218.0 L28.0,-217.2 L27.8,-217.0 L27.0,-216.2 L26.8,-216.0 L26.8,-215.0 L26.0,-214.2 L25.8,-214.0 L25.8,-213.0 L25.0,-212.2 L24.8,-212.0 L24.8,-211.0 L24.0,-210.2 L23.8,-210.0 L23.8,-209.0 L23.8,-208.0 L23.0,-207.2 L22.8,-207.0 L22.8,-206.0 L22.0,-205.2 L21.8,-205.0 L21.8,-204.0 L21.8,-203.0 L21.8,-202.0 L21.8,-201.0 L21.8,-200.0 L21.8,-199.0 L21.8,-198.0 L21.8,-197.0 L21.0,-196.2 L20.8,-196.0 L20.8,-195.0 L20.8,-194.0 L20.0,-193.2 L19.8,-193.0 L19.8,-192.0 L19.0,-191.2 L18.8,-191.0 L18.0,-190.2 L17.8,-190.0 L17.8,-189.0 L17.8,-188.0 L17.8,-187.0 L17.8,-186.0 L17.8,-185.0 L17.8,-184.0 L17.8,-183.0 L18.0,-182.8 L19.0,-182.8 L20.0,-182.8 L20.8,-182.0 L21.0,-181.8 L22.0,-181.8 L23.0,-181.8 L23.8,-181.0 L24.0,-180.8 L25.0,-180.8 L26.0,-180.8 L26.8,-180.0 L27.0,-179.8 L28.0,-179.8 L29.0,-179.8 L29.8,-179.0 L30.0,-178.8 L31.0,-178.8 L32.0,-178.8 L32.8,-178.0 L33.0,-177.8 L34.0,-177.8 L34.8,-177.0 L35.0,-176.8 L36.0,-176.8 L37.0,-176.8 L37.8,-176.0 L38.0,-175.8 L39.0,-175.8 L40.0,-175.8 L41.0,-175.8 L42.0,-175.8 L42.8,-175.0 L43.0,-174.8 L44.0,-174.8 L45.0,-174.8 L46.0,-174.8 L47.0,-174.8 L48.0,-174.8 L49.0,-174.8 L50.0,-174.8 L51.0,-174.8 L52.0,-174.8 L53.0,-174.8 L54.0,-174.8 L55.0,-174.8 L56.0,-174.8 L57.0,-174.8 L58.0,-174.8 L59.0,-174.8 L59.2,-175.0 L60.0,-175.8 L61.0,-175.8 L62.0,-175.8 L63.0,-175.8 L63.2,-176.0 L64.0,-176.8 L65.0,-176.8 L66.0,-176.8 L66.2,-177.0 L67.0,-177.8 L68.0,-177.8 L68.2,-178.0 L69.0,-178.8 L69.2,-179.0 L70.0,-179.8 L71.0,-179.8 L71.2,-180.0 L72.0,-180.8 L72.2,-181.0 L73.0,-181.8 L73.2,-182.0 L74.0,-182.8 L75.0,-182.8 L76.0,-182.8 L77.0,-182.8 L78.0,-182.8 L79.0,-182.8 L79.8,-182.0 L80.0,-181.8 L81.0,-181.8 L82.0,-181.8 L83.0,-181.8 L84.0,-181.8 L85.0,-181.8 L86.0,-181.8 L87.0,-181.8 L88.0,-181.8 L89.0,-181.8 L89.2,-182.0 L90.0,-182.8 L91.0,-182.8 L92.0,-182.8 L93.0,-182.8 L93.8,-182.0 L94.0,-181.8 L94.8,-181.0 L95.0,-180.8 L96.0,-180.8 L96.8,-180.0 L97.0,-179.8 L97.8,-179.0 L98.0,-178.8 L98.8,-178.0 L99.0,-177.8 L100.0,-177.8 L100.8,-177.0 L101.0,-176.8 L102.0,-176.8 L103.0,-176.8 L103.8,-176.0 L104.0,-175.8 L105.0,-175.8 L106.0,-175.8 L106.8,-175.0 L107.0,-174.8 L108.0,-174.8 L109.0,-174.8 L110.0,-174.8 L111.0,-174.8 L112.0,-174.8 L113.0,-174.8 L114.0,-174.8 L115.0,-174.8 L116.0,-174.8 L117.0,-174.8 L118.0,-174.8 L119.0,-174.8 L120.0,-174.8 L121.0,-174.8 L122.0,-174.8 L123.0,-174.8 L124.0,-174.8 L124.2,-175.0 L125.0,-175.8 L126.0,-175.8 L127.0,-175.8 L128.0,-175.8 L129.0,-175.8 L129.2,-176.0 L130.0,-176.8 L131.0,-176.8 L132.0,-176.8 L132.2,-177.0 L133.0,-177.8 L134.0,-177.8 L134.2,-178.0 L135.0,-178.8 L136.0,-178.8 L137.0,-178.8 L137.2,-179.0 L138.0,-179.8 L139.0,-179.8 L140.0,-179.8 L140.2,-180.0 L141.0,-180.8 L142.0,-180.8 L143.0,-180.8 L143.2,-181.0 L144.0,-181.8 L145.0,-181.8 L146.0,-181.8 L146.2,-182.0 L147.0,-182.8 L148.0,-182.8 L149.0,-182.8 L149.2,-183.0 L149.2,-184.0 L149.2,-185.0 L149.2,-186.0 L149.2,-187.0 L149.2,-188.0 L149.2,-189.0 L149.2,-190.0 L149.0,-190.2 L148.2,-191.0 L148.0,-191.2 L147.2,-192.0 L147.2,-193.0 L147.0,-193.2 L146.2,-194.0 L146.2,-195.0 L146.2,-196.0 L146.0,-196.2 L145.2,-197.0 L145.2,-198.0 L145.2,-199.0 L145.2,-200.0 L145.2,-201.0 L145.2,-202.0 L145.2,-203.0 L145.2,-204.0 L145.2,-205.0 L145.0,-205.2 L144.2,-206.0 L144.2,-207.0 L144.0,-207.2 L143.2,-208.0 L143.2,-209.0 L143.2,-210.0 L143.0,-210.2 L142.2,-211.0 L142.2,-212.0 L142.0,-212.2 L141.2,-213.0 L141.2,-214.0 L141.0,-214.2 L140.2,-215.0 L140.2,-216.0 L140.0,-216.2 L139.2,-217.0 L139.0,-217.2 L138.2,-218.0 L138.0,-218.2 L137.2,-219.0 L137.0,-219.2 L136.2,-220.0 L136.0,-220.2 L135.2,-221.0 L135.0,-221.2 L134.2,-222.0 L134.0,-222.2 L133.0,-222.2 L132.2,-223.0 L132.0,-223.2 L131.2,-224.0 L131.0,-224.2 L130.0,-224.2 L129.2,-225.0 L129.0,-225.2 L128.0,-225.2 L127.2,-226.0 L127.0,-226.2 L126.0,-226.2 L125.0,-226.2 L124.0,-226.2 L123.0,-226.2 L122.2,-227.0 L122.0,-227.2 Z" fill="none" stroke="black"/><path d="M51.8,-223.0 L52.0,-222.8 L53.0,-222.8 L54.0,-222.8 L55.0,-222.8 L55.8,-222.0 L56.0,-221.8 L57.0,-221.8 L58.0,-221.8 L58.8,-221.0 L59.0,-220.8 L59.8,-220.0 L60.0,-219.8 L61.0,-219.8 L61.8,-219.0 L62.0,-218.8 L63.0,-218.8 L63.8,-218.0 L64.0,-217.8 L64.8,-217.0 L65.0,-216.8 L65.8,-216.0 L66.0,-215.8 L66.8,-215.0 L67.0,-214.8 L67.8,-214.0 L68.0,-213.8 L68.8,-213.0 L68.8,-212.0 L69.0,-211.8 L69.8,-211.0 L70.0,-210.8 L70.8,-210.0 L70.8,-209.0 L71.0,-208.8 L71.8,-208.0 L71.8,-207.0 L72.0,-206.8 L72.8,-206.0 L72.8,-205.0 L72.8,-204.0 L73.0,-203.8 L73.8,-203.0 L73.8,-202.0 L73.8,-201.0 L73.8,-200.0 L74.0,-199.8 L74.8,-199.0 L74.8,-198.0 L74.8,-197.0 L74.8,-196.0 L74.8,-195.0 L74.8,-194.0 L74.8,-193.0 L74.0,-192.2 L73.8,-192.0 L73.8,-191.0 L73.8,-190.0 L73.8,-189.0 L73.0,-188.2 L72.8,-188.0 L72.8,-187.0 L72.0,-186.2 L71.8,-186.0 L71.8,-185.0 L71.0,-184.2 L70.8,-184.0 L70.0,-183.2 L69.0,-183.2 L68.8,-183.0 L68.0,-182.2 L67.8,-182.0 L67.0,-181.2 L66.0,-181.2 L65.8,-181.0 L65.0,-180.2 L64.0,-180.2 L63.8,-180.0 L63.0,-179.2 L62.0,-179.2 L61.0,-179.2 L60.0,-179.2 L59.8,-179.0 L59.0,-178.2 L58.0,-178.2 L57.0,-178.2 L56.0,-178.2 L55.0,-178.2 L54.0,-178.2 L53.0,-178.2 L52.0,-178.2 L51.0,-178.2 L50.0,-178.2 L49.0,-178.2 L48.0,-178.2 L47.0,-178.2 L46.0,-178.2 L45.0,-178.2 L44.0,-178.2 L43.0,-178.2 L42.2,-179.0 L42.0,-179.2 L41.0,-179.2 L40.0,-179.2 L39.0,-179.2 L38.2,-180.0 L38.0,-180.2 L37.0,-180.2 L36.0,-180.2 L35.2,-181.0 L35.0,-181.2 L34.0,-181.2 L33.2,-182.0 L33.0,-182.2 L32.2,-183.0 L32.0,-183.2 L31.0,-183.2 L30.2,-184.0 L30.2,-185.0 L30.0,-185.2 L29.2,-186.0 L29.0,-186.2 L28.2,-187.0 L28.0,-187.2 L27.2,-188.0 L27.2,-189.0 L27.0,-189.2 L26.2,-190.0 L26.2,-191.0 L26.0,-191.2 L25.2,-192.0 L25.2,-193.0 L25.2,-194.0 L25.2,-195.0 L25.2,-196.0 L25.2,-197.0 L25.2,-198.0 L25.2,-199.0 L25.2,-200.0 L25.2,-201.0 L25.2,-202.0 L25.2,-203.0 L26.0,-203.8 L26.2,-204.0 L26.2,-205.0 L26.2,-206.0 L26.2,-207.0 L27.0,-207.8 L27.2,-208.0 L27.2,-209.0 L28.0,-209.8 L28.2,-210.0 L29.0,-210.8 L29.2,-211.0 L29.2,-212.0 L30.0,-212.8 L30.2,-213.0 L31.0,-213.8 L31.2,-214.0 L31.2,-215.0 L32.0,-215.8 L32.2,-216.0 L33.0,-216.8 L33.2,-217.0 L34.0,-217.8 L34.2,-218.0 L35.0,-218.8 L35.2,-219.0 L36.0,-219.8 L37.0,-219.8 L37.2,-220.0 L38.0,-220.8 L38.2,-221.0 L39.0,-221.8 L40.0,-221.8 L41.0,-221.8 L41.2,-222.0 L42.0,-222.8 L43.0,-222.8 L44.0,-222.8 L44.2,-223.0 L45.0,-223.8 L46.0,-223.8 L47.0,-223.8 L48.0,-223.8 L49.0,-223.8 L50.0,-223.8 L51.0,-223.8 L51.8,-223.0 Z" fill="none" stroke="black"/><path d="M122.8,-223.0 L123.0,-222.8 L124.0,-222.8 L125.0,-222.8 L125.8,-222.0 L126.0,-221.8 L127.0,-221.8 L128.0,-221.8 L128.8,-221.0 L129.0,-220.8 L129.8,-220.0 L130.0,-219.8 L131.0,-219.8 L131.8,-219.0 L132.0,-218.8 L132.8,-218.0 L133.0,-217.8 L133.8,-217.0 L134.0,-216.8 L134.8,-216.0 L135.0,-215.8 L135.8,-215.0 L135.8,-214.0 L136.0,-213.8 L136.8,-213.0 L137.0,-212.8 L137.8,-212.0 L137.8,-211.0 L138.0,-210.8 L138.8,-210.0 L139.0,-209.8 L139.8,-209.0 L139.8,-208.0 L140.0,-207.8 L140.8,-207.0 L140.8,-206.0 L140.8,-205.0 L140.8,-204.0 L141.0,-203.8 L141.8,-203.0 L141.8,-202.0 L141.8,-201.0 L141.8,-200.0 L141.8,-199.0 L141.8,-198.0 L141.8,-197.0 L141.8,-196.0 L141.8,-195.0 L141.8,-194.0 L141.8,-193.0 L141.8,-192.0 L141.0,-191.2 L140.8,-191.0 L140.8,-190.0 L140.0,-189.2 L139.8,-189.0 L139.8,-188.0 L139.0,-187.2 L138.8,-187.0 L138.0,-186.2 L137.8,-186.0 L137.0,-185.2 L136.8,-185.0 L136.8,-184.0 L136.0,-183.2 L135.0,-183.2 L134.8,-183.0 L134.0,-182.2 L133.8,-182.0 L133.0,-181.2 L132.0,-181.2 L131.8,-181.0 L131.0,-180.2 L130.0,-180.2 L129.0,-180.2 L128.8,-180.0 L128.0,-179.2 L127.0,-179.2 L126.0,-179.2 L125.0,-179.2 L124.8,-179.0 L124.0,-178.2 L123.0,-178.2 L122.0,-178.2 L121.0,-178.2 L120.0,-178.2 L119.0,-178.2 L118.0,-178.2 L117.0,-178.2 L116.0,-178.2 L115.0,-178.2 L114.0,-178.2 L113.0,-178.2 L112.0,-178.2 L111.0,-178.2 L110.0,-178.2 L109.0,-178.2 L108.0,-178.2 L107.2,-179.0 L107.0,-179.2 L106.0,-179.2 L105.0,-179.2 L104.0,-179.2 L103.2,-180.0 L103.0,-180.2 L102.0,-180.2 L101.2,-181.0 L101.0,-181.2 L100.0,-181.2 L99.2,-182.0 L99.0,-182.2 L98.0,-182.2 L97.2,-183.0 L97.0,-183.2 L96.2,-184.0 L96.0,-184.2 L95.2,-185.0 L95.2,-186.0 L95.0,-186.2 L94.2,-187.0 L94.2,-188.0 L94.0,-188.2 L93.2,-189.0 L93.2,-190.0 L93.2,-191.0 L93.2,-192.0 L93.2,-193.0 L93.0,-193.2 L92.2,-194.0 L92.2,-195.0 L92.2,-196.0 L92.2,-197.0 L92.2,-198.0 L93.0,-198.8 L93.2,-199.0 L93.2,-200.0 L93.2,-201.0 L93.2,-202.0 L93.2,-203.0 L94.0,-203.8 L94.2,-204.0 L94.2,-205.0 L94.2,-206.0 L95.0,-206.8 L95.2,-207.0 L95.2,-208.0 L96.0,-208.8 L96.2,-209.0 L96.2,-210.0 L97.0,-210.8 L97.2,-211.0 L98.0,-211.8 L98.2,-212.0 L98.2,-213.0 L99.0,-213.8 L99.2,-214.0 L100.0,-214.8 L100.2,-215.0 L101.0,-215.8 L101.2,-216.0 L102.0,-216.8 L102.2,-217.0 L103.0,-217.8 L103.2,-218.0 L104.0,-218.8 L105.0,-218.8 L105.2,-219.0 L106.0,-219.8 L107.0,-219.8 L107.2,-220.0 L108.0,-220.8 L108.2,-221.0 L109.0,-221.8 L110.0,-221.8 L111.0,-221.8 L111.2,-222.0 L112.0,-222.8 L113.0,-222.8 L114.0,-222.8 L115.0,-222.8 L115.2,-223.0 L116.0,-223.8 L117.0,-223.8 L118.0,-223.8 L119.0,-223.8 L120.0,-223.8 L121.0,-223.8 L122.0,-223.8 L122.8,-223.0 Z" fill="none" stroke="black"/></svg>